<svg class="markmap" xmlns="http://www.w3.org/2000/svg" width="1502" height="539" viewBox="0 -244 1502 539"><style>.markmap { font: 300 16px/20px sans-serif; color: #333; } .markmap-link { fill: none; } .markmap-foreign { display: inline-block; } .markmap-foreign p { margin: 0px; } .markmap-foreign a { color: #0097e6; } .markmap-foreign a:hover { color: #00a8ff; } .markmap-foreign code { padding: 0.25em; font-size: calc(1em - 2px); color: #555; background-color: #f0f0f0; border-radius: 2px; } .markmap-foreign del { text-decoration: line-through; } .markmap-foreign em { font-style: italic; } .markmap-foreign strong { font-weight: 700; } .markmap-foreign mark { background: #ffeaa7; }</style><g transform="translate(25, 25)"><path class="markmap-link" data-depth="2" data-path="1.2" d="M557,10C597,10,597,-224.75,637,-224.75" stroke="rgb(255, 127, 14)" stroke-width="1.5"></path><path class="markmap-link" data-depth="2" data-path="1.3" d="M557,10C597,10,597,-180.75,637,-180.75" stroke="rgb(44, 160, 44)" stroke-width="1.5"></path><path class="markmap-link" data-depth="2" data-path="1.6" d="M557,10C597,10,597,-137.75,637,-137.75" stroke="rgb(140, 86, 75)" stroke-width="1.5"></path><path class="markmap-link" data-depth="2" data-path="1.7" d="M557,10C597,10,597,-112.75,637,-112.75" stroke="rgb(227, 119, 194)" stroke-width="1.5"></path><path class="markmap-link" data-depth="2" data-path="1.11" d="M557,10C597,10,597,-20.25,637,-20.25" stroke="rgb(31, 119, 180)" stroke-width="1.5"></path><path class="markmap-link" data-depth="2" data-path="1.16" d="M557,10C597,10,597,59.75,637,59.75" stroke="rgb(140, 86, 75)" stroke-width="1.5"></path><path class="markmap-link" data-depth="2" data-path="1.19" d="M557,10C597,10,597,127.25,637,127.25" stroke="rgb(188, 189, 34)" stroke-width="1.5"></path><path class="markmap-link" data-depth="2" data-path="1.23" d="M557,10C597,10,597,194.75,637,194.75" stroke="rgb(44, 160, 44)" stroke-width="1.5"></path><path class="markmap-link" data-depth="2" data-path="1.26" d="M557,10C597,10,597,219.75,637,219.75" stroke="rgb(140, 86, 75)" stroke-width="1.5"></path><path class="markmap-link" data-depth="2" data-path="1.27" d="M557,10C597,10,597,244.75,637,244.75" stroke="rgb(227, 119, 194)" stroke-width="1.5"></path><path class="markmap-link" data-depth="3" data-path="1.3.4" d="M719,-180.75C759,-180.75,759,-193.75,799,-193.75" stroke="rgb(214, 39, 40)" stroke-width="1.5"></path><path class="markmap-link" data-depth="3" data-path="1.3.5" d="M719,-180.75C759,-180.75,759,-167.75,799,-167.75" stroke="rgb(148, 103, 189)" stroke-width="1.5"></path><path class="markmap-link" data-depth="3" data-path="1.7.8" d="M841,-112.75C881,-112.75,881,-137.75,921,-137.75" stroke="rgb(127, 127, 127)" stroke-width="1.5"></path><path class="markmap-link" data-depth="3" data-path="1.7.9" d="M841,-112.75C881,-112.75,881,-112.75,921,-112.75" stroke="rgb(188, 189, 34)" stroke-width="1.5"></path><path class="markmap-link" data-depth="3" data-path="1.7.10" d="M841,-112.75C881,-112.75,881,-87.75,921,-87.75" stroke="rgb(23, 190, 207)" stroke-width="1.5"></path><path class="markmap-link" data-depth="3" data-path="1.11.12" d="M1021,-20.25C1061,-20.25,1061,-57.75,1101,-57.75" stroke="rgb(255, 127, 14)" stroke-width="1.5"></path><path class="markmap-link" data-depth="3" data-path="1.11.13" d="M1021,-20.25C1061,-20.25,1061,-32.75,1101,-32.75" stroke="rgb(44, 160, 44)" stroke-width="1.5"></path><path class="markmap-link" data-depth="3" data-path="1.11.14" d="M1021,-20.25C1061,-20.25,1061,-7.75,1101,-7.75" stroke="rgb(214, 39, 40)" stroke-width="1.5"></path><path class="markmap-link" data-depth="3" data-path="1.11.15" d="M1021,-20.25C1061,-20.25,1061,17.25,1101,17.25" stroke="rgb(148, 103, 189)" stroke-width="1.5"></path><path class="markmap-link" data-depth="3" data-path="1.16.17" d="M888,59.75C928,59.75,928,47.25,968,47.25" stroke="rgb(227, 119, 194)" stroke-width="1.5"></path><path class="markmap-link" data-depth="3" data-path="1.16.18" d="M888,59.75C928,59.75,928,72.25,968,72.25" stroke="rgb(127, 127, 127)" stroke-width="1.5"></path><path class="markmap-link" data-depth="3" data-path="1.19.20" d="M831,127.25C871,127.25,871,102.25,911,102.25" stroke="rgb(23, 190, 207)" stroke-width="1.5"></path><path class="markmap-link" data-depth="3" data-path="1.19.21" d="M831,127.25C871,127.25,871,127.25,911,127.25" stroke="rgb(31, 119, 180)" stroke-width="1.5"></path><path class="markmap-link" data-depth="3" data-path="1.19.22" d="M831,127.25C871,127.25,871,152.25,911,152.25" stroke="rgb(255, 127, 14)" stroke-width="1.5"></path><path class="markmap-link" data-depth="3" data-path="1.23.24" d="M938,194.75C978,194.75,978,182.25,1018,182.25" stroke="rgb(214, 39, 40)" stroke-width="1.5"></path><path class="markmap-link" data-depth="3" data-path="1.23.25" d="M938,194.75C978,194.75,978,207.25,1018,207.25" stroke="rgb(148, 103, 189)" stroke-width="1.5"></path><g data-depth="3" data-path="1.23.25" transform="translate(1018, 187.25)" class="markmap-node"><line x1="-1" x2="434" y1="20" y2="20" stroke="rgb(148, 103, 189)" stroke-width="1.5"></line><foreignObject class="markmap-foreign" x="8" y="0" width="416" height="20" style="opacity: 1;"><div xmlns="http://www.w3.org/1999/xhtml">Decoupled Scheduling for Evaluation 解耦计划的评估阶段</div></foreignObject></g><g data-depth="3" data-path="1.23.24" transform="translate(1018, 162.25)" class="markmap-node"><line x1="-1" x2="314" y1="20" y2="20" stroke="rgb(214, 39, 40)" stroke-width="1.5"></line><foreignObject class="markmap-foreign" x="8" y="0" width="296" height="20" style="opacity: 1;"><div xmlns="http://www.w3.org/1999/xhtml">Fault-tolerant Pretraining 错误容忍预训练</div></foreignObject></g><g data-depth="3" data-path="1.19.22" transform="translate(911, 132.25)" class="markmap-node"><line x1="-1" x2="84" y1="20" y2="20" stroke="rgb(255, 127, 14)" stroke-width="1.5"></line><foreignObject class="markmap-foreign" x="8" y="0" width="66" height="20" style="opacity: 1;"><div xmlns="http://www.w3.org/1999/xhtml">故障恢复</div></foreignObject></g><g data-depth="3" data-path="1.19.21" transform="translate(911, 107.25)" class="markmap-node"><line x1="-1" x2="84" y1="20" y2="20" stroke="rgb(31, 119, 180)" stroke-width="1.5"></line><foreignObject class="markmap-foreign" x="8" y="0" width="66" height="20" style="opacity: 1;"><div xmlns="http://www.w3.org/1999/xhtml">故障描述</div></foreignObject></g><g data-depth="3" data-path="1.19.20" transform="translate(911, 82.25)" class="markmap-node"><line x1="-1" x2="206" y1="20" y2="20" stroke="rgb(23, 190, 207)" stroke-width="1.5"></line><foreignObject class="markmap-foreign" x="8" y="0" width="188" height="20" style="opacity: 1;"><div xmlns="http://www.w3.org/1999/xhtml">Failure Category 故障类型</div></foreignObject></g><g data-depth="3" data-path="1.16.18" transform="translate(968, 52.25)" class="markmap-node"><line x1="-1" x2="300" y1="20" y2="20" stroke="rgb(127, 127, 127)" stroke-width="1.5"></line><foreignObject class="markmap-foreign" x="8" y="0" width="282" height="20" style="opacity: 1;"><div xmlns="http://www.w3.org/1999/xhtml">Evaluation Workload 评估阶段工作负载</div></foreignObject></g><g data-depth="3" data-path="1.16.17" transform="translate(968, 27.25)" class="markmap-node"><line x1="-1" x2="285" y1="20" y2="20" stroke="rgb(227, 119, 194)" stroke-width="1.5"></line><foreignObject class="markmap-foreign" x="8" y="0" width="267" height="20" style="opacity: 1;"><div xmlns="http://www.w3.org/1999/xhtml">Pretraining workload 预训练工作负载</div></foreignObject></g><g data-depth="3" data-path="1.11.15" transform="translate(1101, -2.75)" class="markmap-node"><line x1="-1" x2="233" y1="20" y2="20" stroke="rgb(148, 103, 189)" stroke-width="1.5"></line><foreignObject class="markmap-foreign" x="8" y="0" width="215" height="20" style="opacity: 1;"><div xmlns="http://www.w3.org/1999/xhtml">Environment Impact 环境影响</div></foreignObject></g><g data-depth="3" data-path="1.11.14" transform="translate(1101, -27.75)" class="markmap-node"><line x1="-1" x2="183" y1="20" y2="20" stroke="rgb(214, 39, 40)" stroke-width="1.5"></line><foreignObject class="markmap-foreign" x="8" y="0" width="165" height="20" style="opacity: 1;"><div xmlns="http://www.w3.org/1999/xhtml">Infrastructure 基础设施</div></foreignObject></g><g data-depth="3" data-path="1.11.13" transform="translate(1101, -52.75)" class="markmap-node"><line x1="-1" x2="288" y1="20" y2="20" stroke="rgb(44, 160, 44)" stroke-width="1.5"></line><foreignObject class="markmap-foreign" x="8" y="0" width="270" height="20" style="opacity: 1;"><div xmlns="http://www.w3.org/1999/xhtml">Workload Categories （负载的特征）</div></foreignObject></g><g data-depth="3" data-path="1.11.12" transform="translate(1101, -77.75)" class="markmap-node"><line x1="-1" x2="186" y1="20" y2="20" stroke="rgb(255, 127, 14)" stroke-width="1.5"></line><foreignObject class="markmap-foreign" x="8" y="0" width="168" height="20" style="opacity: 1;"><div xmlns="http://www.w3.org/1999/xhtml">LLMs 与 DL 负载的比较</div></foreignObject></g><g data-depth="3" data-path="1.7.10" transform="translate(921, -107.75)" class="markmap-node"><line x1="-1" x2="302" y1="20" y2="20" stroke="rgb(23, 190, 207)" stroke-width="1.5"></line><foreignObject class="markmap-foreign" x="8" y="0" width="284" height="20" style="opacity: 1;"><div xmlns="http://www.w3.org/1999/xhtml">Traces form Acme（来自Acme的数据）</div></foreignObject></g><g data-depth="3" data-path="1.7.9" transform="translate(921, -132.75)" class="markmap-node"><line x1="-1" x2="134" y1="20" y2="20" stroke="rgb(188, 189, 34)" stroke-width="1.5"></line><foreignObject class="markmap-foreign" x="8" y="0" width="116" height="20" style="opacity: 1;"><div xmlns="http://www.w3.org/1999/xhtml">Acme Overview</div></foreignObject></g><g data-depth="3" data-path="1.7.8" transform="translate(921, -157.75)" class="markmap-node"><line x1="-1" x2="222" y1="20" y2="20" stroke="rgb(127, 127, 127)" stroke-width="1.5"></line><foreignObject class="markmap-foreign" x="8" y="0" width="204" height="20" style="opacity: 1;"><div xmlns="http://www.w3.org/1999/xhtml">LLM Development Pippeline</div></foreignObject></g><g data-depth="3" data-path="1.3.5" transform="translate(799, -188.75)" class="markmap-node"><line x1="-1" x2="116" y1="21" y2="21" stroke="rgb(148, 103, 189)" stroke-width="1.5"></line><foreignObject class="markmap-foreign" x="8" y="0" width="98" height="21" style="opacity: 1;"><div xmlns="http://www.w3.org/1999/xhtml"><strong>其他参考信息</strong></div></foreignObject></g><g data-depth="3" data-path="1.3.4" transform="translate(799, -214.75)" class="markmap-node"><line x1="-1" x2="52" y1="21" y2="21" stroke="rgb(214, 39, 40)" stroke-width="1.5"></line><foreignObject class="markmap-foreign" x="8" y="0" width="34" height="21" style="opacity: 1;"><div xmlns="http://www.w3.org/1999/xhtml"><strong>源码</strong></div></foreignObject></g><g data-depth="2" data-path="1.27" transform="translate(637, 224.75)" class="markmap-node"><line x1="-1" x2="84" y1="20" y2="20" stroke="rgb(227, 119, 194)" stroke-width="1.5"></line><foreignObject class="markmap-foreign" x="8" y="0" width="66" height="20" style="opacity: 1;"><div xmlns="http://www.w3.org/1999/xhtml">参考文献</div></foreignObject></g><g data-depth="2" data-path="1.26" transform="translate(637, 199.75)" class="markmap-node"><line x1="-1" x2="116" y1="20" y2="20" stroke="rgb(140, 86, 75)" stroke-width="1.5"></line><foreignObject class="markmap-foreign" x="8" y="0" width="98" height="20" style="opacity: 1;"><div xmlns="http://www.w3.org/1999/xhtml">Related Work</div></foreignObject></g><g data-depth="2" data-path="1.23" transform="translate(637, 174.75)" class="markmap-node"><line x1="-1" x2="303" y1="20" y2="20" stroke="rgb(44, 160, 44)" stroke-width="1.5"></line><circle stroke-width="1.5" cx="301" cy="20" r="6" stroke="rgb(44, 160, 44)" fill="#fff"></circle><foreignObject class="markmap-foreign" x="8" y="0" width="285" height="20" style="opacity: 1;"><div xmlns="http://www.w3.org/1999/xhtml">Depolyed LLM Systems 部署大模型系统</div></foreignObject></g><g data-depth="2" data-path="1.19" transform="translate(637, 107.25)" class="markmap-node"><line x1="-1" x2="196" y1="20" y2="20" stroke="rgb(188, 189, 34)" stroke-width="1.5"></line><circle stroke-width="1.5" cx="194" cy="20" r="6" stroke="rgb(188, 189, 34)" fill="#fff"></circle><foreignObject class="markmap-foreign" x="8" y="0" width="178" height="20" style="opacity: 1;"><div xmlns="http://www.w3.org/1999/xhtml">Failure Analysis 失败分析</div></foreignObject></g><g data-depth="2" data-path="1.16" transform="translate(637, 39.75)" class="markmap-node"><line x1="-1" x2="253" y1="20" y2="20" stroke="rgb(140, 86, 75)" stroke-width="1.5"></line><circle stroke-width="1.5" cx="251" cy="20" r="6" stroke="rgb(140, 86, 75)" fill="#fff"></circle><foreignObject class="markmap-foreign" x="8" y="0" width="235" height="20" style="opacity: 1;"><div xmlns="http://www.w3.org/1999/xhtml">Workload Profiling 工作负载剖析</div></foreignObject></g><g data-depth="2" data-path="1.11" transform="translate(637, -40.25)" class="markmap-node"><line x1="-1" x2="386" y1="20" y2="20" stroke="rgb(31, 119, 180)" stroke-width="1.5"></line><circle stroke-width="1.5" cx="384" cy="20" r="6" stroke="rgb(31, 119, 180)" fill="#fff"></circle><foreignObject class="markmap-foreign" x="8" y="0" width="368" height="20" style="opacity: 1;"><div xmlns="http://www.w3.org/1999/xhtml">Datacenter Characterization （数据中心数字特征）</div></foreignObject></g><g data-depth="2" data-path="1.7" transform="translate(637, -132.75)" class="markmap-node"><line x1="-1" x2="206" y1="20" y2="20" stroke="rgb(227, 119, 194)" stroke-width="1.5"></line><circle stroke-width="1.5" cx="204" cy="20" r="6" stroke="rgb(227, 119, 194)" fill="#fff"></circle><foreignObject class="markmap-foreign" x="8" y="0" width="188" height="20" style="opacity: 1;"><div xmlns="http://www.w3.org/1999/xhtml">Background （背景知识）</div></foreignObject></g><g data-depth="2" data-path="1.6" transform="translate(637, -157.75)" class="markmap-node"><line x1="-1" x2="157" y1="20" y2="20" stroke="rgb(140, 86, 75)" stroke-width="1.5"></line><foreignObject class="markmap-foreign" x="8" y="0" width="139" height="20" style="opacity: 1;"><div xmlns="http://www.w3.org/1999/xhtml">Introduce （介绍）</div></foreignObject></g><g data-depth="2" data-path="1.3" transform="translate(637, -201.75)" class="markmap-node"><line x1="-1" x2="84" y1="21" y2="21" stroke="rgb(44, 160, 44)" stroke-width="1.5"></line><circle stroke-width="1.5" cx="82" cy="21" r="6" stroke="rgb(44, 160, 44)" fill="#fff"></circle><foreignObject class="markmap-foreign" x="8" y="0" width="66" height="21" style="opacity: 1;"><div xmlns="http://www.w3.org/1999/xhtml"><strong>场外信息</strong></div></foreignObject></g><g data-depth="2" data-path="1.2" transform="translate(637, -244.75)" class="markmap-node"><line x1="-1" x2="99" y1="20" y2="20" stroke="rgb(255, 127, 14)" stroke-width="1.5"></line><foreignObject class="markmap-foreign" x="8" y="0" width="81" height="20" style="opacity: 1;"><div xmlns="http://www.w3.org/1999/xhtml">提问式阅读</div></foreignObject></g><g data-depth="1" data-path="1" transform="translate(0,-10)" class="markmap-node"><line x1="-1" x2="559" y1="20" y2="20" stroke="rgb(31, 119, 180)" stroke-width="2"></line><circle stroke-width="1.5" cx="557" cy="20" r="6" stroke="rgb(31, 119, 180)" fill="#fff"></circle><foreignObject class="markmap-foreign" x="8" y="0" width="541" height="20" style="opacity: 1;"><div xmlns="http://www.w3.org/1999/xhtml">Characterization of Large Language Model Development in the Datacenter</div></foreignObject></g></g></svg>