<?xml version="1.0" standalone="no"?>
<!DOCTYPE svg PUBLIC "-//W3C//DTD SVG 20010904//EN"
 "http://www.w3.org/TR/2001/REC-SVG-20010904/DTD/svg10.dtd">
<svg version="1.0" xmlns="http://www.w3.org/2000/svg"
 width="150.000000pt" height="150.000000pt" viewBox="0 0 150.000000 150.000000"
 preserveAspectRatio="xMidYMid meet">
<metadata>
Created by potrace 1.14, written by Peter Selinger 2001-2017
</metadata>
<g transform="translate(0.000000,150.000000) scale(0.100000,-0.100000)"
fill="#000000" stroke="none">
<path d="M0 750 l0 -750 750 0 750 0 0 750 0 750 -750 0 -750 0 0 -750z m905
695 c38 -8 112 -36 163 -61 296 -147 449 -477 372 -802 -103 -435 -593 -667
-995 -472 -361 175 -506 595 -330 957 38 78 61 109 133 182 74 75 102 95 183
135 53 26 125 53 160 61 85 18 228 18 314 0z"/>
<path d="M1057 1271 c-3 -11 0 -24 5 -28 7 -3 8 -1 4 5 -4 7 -3 12 3 12 5 0
11 -10 13 -22 4 -31 26 -34 24 -3 0 14 -6 25 -13 25 -7 0 -16 7 -21 16 -8 14
-10 13 -15 -5z"/>
<path d="M955 1220 c-3 -5 1 -10 10 -10 9 0 13 5 10 10 -3 6 -8 10 -10 10 -2
0 -7 -4 -10 -10z"/>
<path d="M1335 900 c-3 -5 -1 -10 4 -10 6 0 11 5 11 10 0 6 -2 10 -4 10 -3 0
-8 -4 -11 -10z"/>
<path d="M436 815 c-11 -8 -15 -15 -10 -15 6 0 19 7 30 15 10 8 15 14 9 14 -5
0 -19 -6 -29 -14z"/>
<path d="M550 739 c0 -5 5 -7 10 -4 6 3 10 8 10 11 0 2 -4 4 -10 4 -5 0 -10
-5 -10 -11z"/>
<path d="M630 722 c0 -12 19 -26 26 -19 2 2 -2 10 -11 17 -9 8 -15 8 -15 2z"/>
<path d="M940 661 c0 -5 -7 -17 -16 -25 -14 -15 -14 -16 5 -16 11 0 23 5 26
10 3 6 1 10 -5 10 -6 0 -8 5 -4 12 5 8 11 6 19 -5 7 -10 16 -17 20 -17 5 0 0
9 -10 20 -19 21 -35 26 -35 11z"/>
<path d="M857 479 c7 -7 15 -10 18 -7 3 3 -2 9 -12 12 -14 6 -15 5 -6 -5z"/>
<path d="M517 223 c3 -7 8 -13 12 -14 42 -5 51 -4 51 7 0 8 -6 11 -15 8 -8 -4
-15 -1 -15 4 0 6 -9 10 -19 9 -11 0 -17 -6 -14 -14z"/>
<path d="M483 215 c0 -8 4 -12 9 -9 4 3 8 9 8 15 0 5 -4 9 -8 9 -5 0 -9 -7 -9
-15z"/>
</g>
</svg>
